PathFileType	4	(X/Y/Z)	C:\Users\Basilio\Documents\Thesis Gigler\squatting_fais\c3dfiles\040\SLS_pre_front4\markers_experimental.trc
DataRate	CameraRate	NumFrames	NumMarkers	Units	OrigDataRate	OrigDataStartFrame	OrigNumFrames
200.000000	200.000000	4	62	mm	200.000000	343	1372
Frame#	Time	FHD			LBHD			RBHD			C7			T10			CLAV			LSHO			LUUPA			LMUPA			LDUPA			LLEP			LMEP			LRAD			LUL			LRFIN			RSHO			RUPA1			RMUPA			RDUPA			RLEP			RMEP			RRAD			RUL			RUFIN			LASI			RASI			USACR			LSACR			RSACR			LTHI1			LTHI2			LTHI3			LTHI4			LLFC			LMFC			LTIB1			LTIB2			LTIB3			LTIB4			LLMAL			LMMAL			LHEE			LMT1			LMT2			LMT5			RTHI			RTHI2			RTHI3			RTHI4			RLFC			RMFC			RTIB1			RTIB2			RTIB3			RTIB4			RLMAL			RMMAL			RHEE			RMT1			RMT2			RMT5			*61			
		X1	Y1	Z1	X2	Y2	Z2	X3	Y3	Z3	X4	Y4	Z4	X5	Y5	Z5	X6	Y6	Z6	X7	Y7	Z7	X8	Y8	Z8	X9	Y9	Z9	X10	Y10	Z10	X11	Y11	Z11	X12	Y12	Z12	X13	Y13	Z13	X14	Y14	Z14	X15	Y15	Z15	X16	Y16	Z16	X17	Y17	Z17	X18	Y18	Z18	X19	Y19	Z19	X20	Y20	Z20	X21	Y21	Z21	X22	Y22	Z22	X23	Y23	Z23	X24	Y24	Z24	X25	Y25	Z25	X26	Y26	Z26	X27	Y27	Z27	X28	Y28	Z28	X29	Y29	Z29	X30	Y30	Z30	X31	Y31	Z31	X32	Y32	Z32	X33	Y33	Z33	X34	Y34	Z34	X35	Y35	Z35	X36	Y36	Z36	X37	Y37	Z37	X38	Y38	Z38	X39	Y39	Z39	X40	Y40	Z40	X41	Y41	Z41	X42	Y42	Z42	X43	Y43	Z43	X44	Y44	Z44	X45	Y45	Z45	X46	Y46	Z46	X47	Y47	Z47	X48	Y48	Z48	X49	Y49	Z49	X50	Y50	Z50	X51	Y51	Z51	X52	Y52	Z52	X53	Y53	Z53	X54	Y54	Z54	X55	Y55	Z55	X56	Y56	Z56	X57	Y57	Z57	X58	Y58	Z58	X59	Y59	Z59	X60	Y60	Z60	X61	Y61	Z61	X62	Y62	Z62	

344	1.715	-218.0036163330079	1760.56982421875	-1132.208984375	-342.7801513671876	1719.446533203125	-1182.597534179688	-406.7561340332032	1684.546997070313	-1054.78076171875	-425.5523376464845	1554.505004882813	-1099.127197265625	-446.6547241210939	1237.2001953125	-1076.23681640625	-295.0623779296876	1491.319091796875	-1098.869384765625	-356.3587036132813	1537.691650390625	-1245.348510742188	-204.6016998291016	1477.580200195313	-1329.7265625	-170.2083282470703	1489.928344726563	-1295.758666992188	-136.7351531982422	1461.88330078125	-1336.0556640625	-81.8058547973633	1431.312255859375	-1339.525024414063	-95.0470657348633	1374.696899414063	-1305.8037109375	181.6815643310547	1421.423828125	-1219.208618164063	197.5188598632813	1436.219360351563	-1290.96533203125	260.1818847656251	1446.4404296875	-1196.941284179688	-339.7044067382813	1534.744995117188	-955.1322021484377	-192.5740356445313	1442.557739257813	-875.371276855469	-159.2267303466797	1460.938354492188	-905.6623535156252	-126.6595687866211	1417.576049804688	-878.6889648437502	-67.43780517578126	1400.38427734375	-889.7556152343752	-85.04453277587892	1344.542724609375	-939.0923461914065	186.3306579589844	1411.477172851563	-1031.925048828125	205.3043670654297	1399.4931640625	-958.3474121093752	280.1567687988282	1417.045288085938	-1043.996704101563	-261.4540405273438	1068.073974609375	-1181.652587890625	-258.8000488281251	1079.241577148438	-953.1694946289065	-447.7345581054689	1096.637817382813	-1057.937255859375	-452.9445800781251	1066.121948242188	-1084.2939453125	-451.9664001464845	1067.02587890625	-1027.602294921875	-345.3512878417969	797.8079223632815	-1217.278686523438	-294.6888427734376	730.0264282226564	-1222.080322265625	-250.938949584961	741.6050415039064	-1231.179321289063	-305.5544433593751	674.7412109375001	-1204.321166992188	-264.9410705566407	546.8192138671876	-1190.5361328125	-252.6065979003907	537.6749267578126	-1059.519897460938	-242.4677429199219	322.4984436035157	-1130.624633789063	-320.5196228027344	292.1240234375001	-1160.1767578125	-278.8234863281251	279.2413024902344	-1150.0048828125	-276.9666748046876	204.8802642822266	-1108.242919921875	-353.9539184570313	125.8555984497071	-1106.692138671875	-313.4918823242188	142.1399536132813	-1029.622802734375	-412.9323730468751	97.08503723144534	-1049.699951171875	-198.7808685302735	57.65707397460939	-1051.269165039063	-204.2808685302735	51.18200683593751	-1097.360229492188	-260.6567382812501	36.34723663330079	-1138.156372070313	-223.1913604736329	822.062438964844	-875.076599121094	-169.132797241211	783.9885864257815	-883.7473144531252	-141.5458526611328	797.2886352539065	-895.105895996094	-167.2231750488282	700.9662475585939	-896.605895996094	-103.9880676269532	582.9307861328126	-910.2525634765627	-105.1320114135742	577.6742553710939	-1045.376831054688	25.23318481445313	441.9020996093751	-941.4835205078127	-0.404477894306183	339.5799865722657	-915.9844360351565	40.67430114746094	357.1596679687501	-928.210388183594	75.90954589843751	325.2237243652344	-963.022155761719	88.20611572265626	197.8603820800782	-943.6569824218752	91.91719818115236	222.9824676513672	-1029.598999023438	51.76315689086915	128.6944274902344	-998.065856933594	249.4724273681641	232.3153991699219	-1019.4521484375	245.5706024169922	231.5023040771485	-980.0915527343752	226.9021911621094	186.4378051757813	-928.538024902344	nan	nan	nan	
345	1.72	-218.5599212646485	1760.35791015625	-1132.542724609375	-343.2453613281251	1719.234375	-1182.8466796875	-407.1821899414064	1684.368530273438	-1054.98876953125	-425.881805419922	1554.303833007813	-1099.3095703125	-446.8667907714845	1237.065185546875	-1076.343383789063	-295.4736633300782	1491.120239257813	-1099.0478515625	-356.6074829101563	1537.6826171875	-1245.300415039063	-204.2189941406251	1478.94921875	-1329.089965820313	-169.5900268554688	1491.109008789063	-1295.068237304688	-136.5693359375	1463.416259765625	-1335.03662109375	-81.14326477050783	1433.101196289063	-1338.420043945313	-94.69595336914064	1377.0693359375	-1305.15087890625	181.5008087158203	1424.061401367188	-1215.86083984375	197.6752624511719	1439.102172851563	-1287.556518554688	259.4900207519532	1448.960571289063	-1193.224365234375	-339.7424316406251	1534.968017578125	-955.5437011718752	-191.7676086425782	1444.032958984375	-876.3601684570315	-158.8856201171875	1462.387573242188	-906.647399902344	-126.0483016967774	1419.171630859375	-879.6906738281252	-66.72301483154298	1401.890625	-890.8408813476565	-84.44675445556642	1346.1572265625	-939.7084960937502	187.6771697998047	1414.550415039063	-1034.0986328125	205.5106964111329	1402.7705078125	-960.7790527343752	280.2858276367188	1420.28662109375	-1046.95263671875	-261.7006225585938	1067.836547851563	-1181.826782226563	-258.8947753906251	1079.258056640625	-953.3310546875002	-448.020477294922	1096.331909179688	-1057.964721679688	-453.0337829589845	1065.779052734375	-1084.387084960938	-452.0840759277345	1066.680419921875	-1027.7685546875	-345.1242065429688	797.524597167969	-1217.447387695313	-294.4700622558594	729.7749023437501	-1222.225830078125	-250.9281005859376	741.5098266601564	-1230.943603515625	-305.2193603515626	674.4160156250001	-1204.421142578125	-264.5154113769532	546.7390747070314	-1190.688598632813	-252.2658691406251	537.6657714843751	-1059.709350585938	-242.2464141845704	322.2215881347657	-1130.559814453125	-320.0870971679688	291.9605102539063	-1160.3779296875	-278.6536254882813	279.0999145507813	-1150.068969726563	-276.6639709472657	204.7364959716797	-1108.269409179688	-353.8298950195313	125.8581695556641	-1106.68408203125	-313.4956054687501	142.1632995605469	-1029.67529296875	-412.9864196777345	97.1413269042969	-1049.619018554688	-199.0672912597657	57.96509170532228	-1051.2158203125	-204.3951721191407	51.06130218505861	-1097.292236328125	-260.6219177246094	36.2971534729004	-1138.122314453125	-222.6817016601563	822.2552490234377	-875.1016235351565	-168.8003540039063	784.0266113281252	-884.4627075195315	-140.8826141357422	797.439147949219	-895.4118652343752	-166.4697418212891	701.2908935546876	-896.6104125976565	-103.5283889770508	583.2811889648439	-910.344421386719	-105.0431518554688	577.6794433593751	-1045.38232421875	25.58214569091798	442.3299560546876	-941.562927246094	-0.1416985243558884	339.6673278808594	-916.0123291015627	40.83422470092774	356.9742126464844	-929.0299072265627	76.3450393676758	325.6070861816407	-963.1694946289065	89.22672271728517	198.6204681396485	-943.310729980469	92.43221282958986	223.1671905517579	-1029.675659179688	52.45365524291994	128.8072357177735	-998.0373535156252	250.1108398437501	232.5347595214844	-1019.452209472656	246.1390075683594	231.5808105468751	-980.3223876953127	227.4936981201172	186.7412261962891	-928.5292968750002	nan	nan	nan	
346	1.725	-218.9226837158204	1760.086547851563	-1132.82421875	-343.6774902343751	1718.981567382813	-1183.08837890625	-407.400115966797	1684.179809570313	-1055.177490234375	-426.2462768554689	1554.157348632813	-1099.440185546875	-447.1778869628907	1236.809814453125	-1076.494506835938	-295.6574707031251	1490.957641601563	-1099.325439453125	-356.7328491210938	1537.648803710938	-1245.2919921875	-203.7901458740235	1480.371948242188	-1328.294799804688	-171.1550903320313	1492.371459960938	-1292.6923828125	-136.0181732177735	1465.125610351563	-1333.800903320313	-80.21083831787111	1434.756713867188	-1337.043212890625	-94.20610809326173	1378.844848632813	-1304.40234375	181.9840545654297	1426.4736328125	-1212.840576171875	198.4956359863282	1441.75927734375	-1284.474975585938	258.5309753417969	1451.093017578125	-1189.220581054688	-339.8279113769532	1535.070922851563	-955.815856933594	-190.83935546875	1444.861083984375	-877.4216918945315	-158.8095245361328	1463.746704101563	-907.740173339844	-125.3247375488282	1420.709228515625	-880.8286743164065	-65.58373260498048	1403.630859375	-892.533386230469	-83.2852020263672	1347.955932617188	-941.6262207031252	188.447982788086	1417.731201171875	-1036.16455078125	206.606185913086	1406.268432617188	-963.296569824219	279.6980895996094	1423.494018554688	-1050.170654296875	-261.8344726562501	1067.725708007813	-1182.018188476563	-258.9762573242188	1079.285278320313	-953.5140380859377	-448.1534118652345	1095.971557617188	-1057.956420898438	-453.1501770019532	1065.461181640625	-1084.443725585938	-452.3075256347657	1066.338012695313	-1027.864868164063	-344.9764404296876	797.220397949219	-1217.543334960938	-294.3289794921876	729.5820312500001	-1222.3330078125	-250.8153991699219	741.5177001953126	-1231.119750976563	-304.9900817871094	674.1878662109376	-1204.5771484375	-264.1524963378907	546.6528930664064	-1190.764282226563	-251.8490142822266	537.7271118164064	-1059.886596679688	-241.4210357666016	322.0751037597657	-1131.000732421875	-319.6983947753907	291.8159790039063	-1160.485717773438	-278.5833129882813	278.9182434082032	-1150.16943359375	-276.6647338867188	205.2105560302735	-1108.147583007813	-353.6643981933594	125.78515625	-1106.61962890625	-313.4456481933594	142.1358032226563	-1029.586547851563	-413.0401611328126	97.16996765136722	-1049.627197265625	-198.8159942626954	57.67092132568361	-1051.156494140625	-204.3322448730469	51.16960906982423	-1097.311401367188	-260.6262512207032	36.34339904785157	-1138.104125976563	-222.2579650878907	822.3972167968752	-875.2521972656252	-168.3504486083985	783.7183837890627	-884.5173950195315	-140.3682250976563	797.6265869140627	-895.1336669921877	-165.9567260742188	701.4151611328126	-896.5347290039065	-102.7536697387696	583.4532470703126	-910.4609375000002	-104.8665161132813	577.7110595703126	-1045.404907226563	26.15820884704591	442.6176147460939	-941.6416015625002	0.4610395431518556	339.8887634277344	-915.942565917969	41.35843658447266	357.0459899902344	-929.2034301757815	76.9960403442383	325.7869873046876	-963.5139770507815	89.55484008789064	198.7992401123047	-943.4022216796877	92.91802978515626	223.2718658447266	-1029.7578125	53.18200302124025	129.6339111328125	-997.8885498046877	250.4129333496094	232.5560760498047	-1019.630554199219	246.5908966064454	231.6975402832032	-980.4864501953127	228.0556335449219	186.9612426757813	-928.5290527343752	nan	nan	nan	
347	1.73	-219.3121185302735	1759.82763671875	-1133.066162109375	-344.0957946777344	1718.739868164063	-1183.389770507813	-407.6703491210939	1684.040283203125	-1055.323608398438	-426.6033935546876	1553.98388671875	-1099.522338867188	-448.0613708496095	1236.107177734375	-1076.817138671875	-296.0566711425782	1490.783447265625	-1099.514770507813	-356.9365539550782	1537.609008789063	-1245.268798828125	-203.3201293945313	1481.645141601563	-1327.602416992188	-171.4717559814453	1493.373901367188	-1291.494750976563	-135.7514343261719	1466.695556640625	-1332.815307617188	-79.98973846435548	1436.879028320313	-1336.083374023438	-93.82884979248048	1380.440795898438	-1303.3515625	181.8485412597657	1429.047607421875	-1209.965942382813	198.697250366211	1444.578491210938	-1281.539306640625	257.8727111816407	1453.03857421875	-1185.682006835938	-340.0722045898438	1535.1103515625	-956.1848144531252	-190.6486511230469	1446.008422851563	-878.1601562500002	-158.4297637939453	1464.745971679688	-908.7407836914065	-124.5887298583985	1422.17919921875	-881.9543457031252	-65.03073883056642	1405.30810546875	-893.5508422851565	-82.72886657714845	1349.9208984375	-942.3170166015627	189.2503662109375	1420.917358398438	-1038.317016601563	206.627426147461	1409.44189453125	-965.8100585937502	279.7850341796876	1426.533081054688	-1052.891235351563	-262.0230102539063	1067.544189453125	-1182.24560546875	-259.0774230957032	1079.2626953125	-953.730651855469	-448.2887268066407	1095.66259765625	-1058.08447265625	-453.2801513671876	1065.071533203125	-1084.40673828125	-452.4612121582032	1066.042114257813	-1027.944702148438	-344.9202880859376	797.041687011719	-1217.633178710938	-294.2879028320313	729.4533691406251	-1222.420776367188	-250.8005981445313	741.4171752929689	-1231.356811523438	-304.6762084960938	673.8905029296876	-1204.688110351563	-263.8308410644532	546.5374145507814	-1190.838012695313	-251.2115783691407	537.5337524414064	-1060.065795898438	-241.1461486816407	321.8379211425782	-1131.072143554688	-319.5858764648438	291.7821350097657	-1160.462524414063	-278.3453674316407	278.8179626464844	-1150.15087890625	-276.5163574218751	205.1229705810547	-1108.160400390625	-354.1993103027344	126.2453842163086	-1106.648193359375	-313.4270019531251	142.1408996582032	-1029.607299804688	-412.9953918457032	97.15401458740237	-1049.61669921875	-198.9801940917969	58.0843849182129	-1051.196044921875	-204.3407745361329	51.06332015991212	-1097.242065429688	-260.6856994628907	36.4246940612793	-1138.099731445313	-221.6995239257813	822.5480957031252	-875.3155517578127	-167.7477111816407	784.2285766601565	-884.4024658203127	-140.1504211425782	797.8638916015627	-895.3009033203127	-165.3357086181641	701.5026245117189	-896.6724853515627	-102.1153030395508	583.5861816406251	-910.522644042969	-104.9061965942383	577.6322631835939	-1045.446166992188	26.76483726501466	442.5977783203126	-941.8825683593752	1.126732230186463	340.2900390625001	-915.957458496094	41.77384567260743	357.2323913574219	-929.4016113281252	77.32223510742189	326.4663696289063	-963.876647949219	89.47529602050783	198.693588256836	-943.8034667968752	93.27172088623048	223.3794708251954	-1029.767333984375	53.48669815063478	129.3698120117188	-998.035339355469	250.8571929931641	232.620101928711	-1019.949523925781	247.0949859619141	231.8488159179688	-980.6459960937502	228.6219482421876	187.3081665039063	-928.8812255859377	nan	nan	nan	
